<?xml version="1.0" encoding="UTF-8"?>
<svg width="1600" height="1200" viewBox="0 0 1600 1200" xmlns="http://www.w3.org/2000/svg" preserveAspectRatio="xMidYMid slice">
  <defs>
    <linearGradient id="sky" x1="0" y1="0" x2="0" y2="1">
      <stop offset="0%" stop-color="#eff6ff" />
      <stop offset="100%" stop-color="#dbeafe" />
    </linearGradient>
    <linearGradient id="ground" x1="0" y1="0" x2="0" y2="1">
      <stop offset="0%" stop-color="#dbeafe" />
      <stop offset="100%" stop-color="#f8fafc" />
    </linearGradient>
    <linearGradient id="truck" x1="0" y1="0" x2="1" y2="1">
      <stop offset="0%" stop-color="#38bdf8" />
      <stop offset="100%" stop-color="#0ea5e9" />
    </linearGradient>
  </defs>
  <rect width="1600" height="1200" fill="url(#sky)" />
  <rect y="900" width="1600" height="300" fill="url(#ground)" />
  <rect x="180" y="560" width="1040" height="420" rx="32" ry="32" fill="#f8fafc" />
  <rect x="200" y="590" width="1000" height="360" fill="#e2e8f0" />
  <rect x="220" y="620" width="180" height="220" fill="#c7d2fe" />
  <rect x="420" y="620" width="180" height="220" fill="#c7d2fe" />
  <rect x="620" y="620" width="180" height="220" fill="#c7d2fe" />
  <rect x="820" y="620" width="180" height="220" fill="#c7d2fe" />
  <rect x="1020" y="680" width="120" height="160" fill="#94a3b8" />
  <rect x="340" y="760" width="920" height="40" fill="#94a3b8" opacity="0.35" />
  <rect x="260" y="520" width="200" height="110" fill="#60a5fa" />
  <rect x="560" y="520" width="200" height="110" fill="#60a5fa" />
  <path d="M140 840 H540 V920 H140 Z" fill="#38bdf8" opacity="0.95" />
  <path d="M150 920 A40 40 0 0 1 230 920 A40 40 0 0 1 150 920 Z" fill="#0f172a" />
  <path d="M450 920 A40 40 0 0 1 530 920 A40 40 0 0 1 450 920 Z" fill="#0f172a" />
  <rect x="440" y="780" width="220" height="110" rx="24" ry="24" fill="url(#truck)" />
  <rect x="520" y="800" width="120" height="80" fill="#ffffff" opacity="0.25" />
  <rect x="500" y="870" width="60" height="60" rx="30" ry="30" fill="#0f172a" />
  <rect x="620" y="870" width="60" height="60" rx="30" ry="30" fill="#0f172a" />
  <rect x="720" y="740" width="28" height="120" fill="#cbd5e1" opacity="0.18" />
  <rect x="840" y="740" width="28" height="120" fill="#cbd5e1" opacity="0.18" />
  <rect x="960" y="740" width="28" height="120" fill="#cbd5e1" opacity="0.18" />
  <rect x="300" y="620" width="100" height="220" fill="#ffffff" opacity="0.65" />
  <rect x="500" y="620" width="100" height="220" fill="#ffffff" opacity="0.65" />
  <rect x="700" y="620" width="100" height="220" fill="#ffffff" opacity="0.65" />
  <text x="230" y="680" font-family="Inter, sans-serif" font-size="44" fill="#0f172a">Courier</text>
  <text x="230" y="730" font-family="Inter, sans-serif" font-size="28" fill="#475569">Warehouse</text>
</svg>
